<svg xmlns="http://www.w3.org/2000/svg" id="Layer_1" data-name="Layer 1" width="811.61" height="185.33" viewBox="0 0 811.61 185.33">
  <defs>
    <style>
      .cls-1 {
        fill: #fff;
        fill-rule: evenodd;
      }
    </style>
  </defs>
  <path id="path4" class="cls-1" d="m115.87,42.63l-15.77-28.88L9.63,178.16h221.41l-62.42-113.69h-31.3l42.56,79.73c.93,1.74.27,3.9-1.47,4.83-1.13.6-2.74.43-4.02.43H63.97c-1.98,0-3.58-1.6-3.58-3.58,0-.7.2-1.36.55-1.91l36.14-65.67c.95-1.73,3.12-2.36,4.85-1.41.62.34,1.1.84,1.41,1.41l19.7,35.94c.95,1.73.32,3.9-1.41,4.85-1.73.95-3.9.32-4.85-1.41l-16.57-30.23-30.19,54.86h100.44l-42.1-79.45c-.18-.28-.33-.59-.43-.92-.1-.33-.15-.68-.15-1.04,0-1.98,1.6-3.58,3.58-3.58h39.36c1.26,0,2.48.68,3.13,1.86l66.25,120.67c1.48,2.35-.19,5.49-3.03,5.49H3.58c-.58,0-1.17-.15-1.72-.45-1.73-.95-2.36-3.12-1.41-4.85L96.04,6.3l.93-1.7c.32-.57.8-1.07,1.43-1.41,1.73-.94,3.9-.3,4.84,1.43l18.02,33h32.53l-16.16-29.59c-.94-1.73-.3-3.9,1.43-4.84,1.73-.94,3.9-.3,4.84,1.43l19.05,34.88c1.31,2.4-.47,5.27-3.13,5.27h-40.66c-1.41.01-2.57-.91-3.28-2.14h0Z"/>
  <path id="path6" class="cls-1" d="m365.62,79.56c-1.37-3.56-2.65-7.01-3.82-10.31-1.16-3.27-2.26-6.44-3.31-9.55-.18-.54-.66-.88-1.23-.88h-36.61c-.55,0-1.02.32-1.21.83-1.21,3.14-2.39,6.35-3.54,9.61-1.17,3.31-2.4,6.73-3.68,10.27-.19.52-.66.86-1.22.86h-5.29c-.44,0-.81-.2-1.06-.55-.25-.36-.31-.78-.16-1.19,2.75-7.53,5.36-14.58,7.84-21.15,2.65-7.08,5.26-13.78,7.82-20.08,2.55-6.32,5.09-12.38,7.61-18.2,2.41-5.56,4.94-11.16,7.6-16.76.22-.46.66-.74,1.17-.74h5.17c.51,0,.96.28,1.18.74,2.63,5.58,5.15,11.16,7.54,16.74,2.5,5.83,5.02,11.9,7.59,18.2,2.55,6.32,5.17,13.02,7.8,20.1,2.44,6.57,5.11,13.62,8,21.13.16.41.11.84-.14,1.2-.25.36-.63.56-1.07.56h-5.73c-.55,0-1.02-.32-1.21-.83h0Zm-27.95-66.24c-2.43,5.64-4.81,11.36-7.14,17.14-2.48,6.23-5.07,12.9-7.72,20.03-.15.41-.1.83.15,1.19.25.36.63.56,1.07.56h29.83c.44,0,.82-.2,1.07-.56.25-.36.3-.78.15-1.2-2.67-7.13-5.29-13.82-7.82-20.05-2.38-5.79-4.78-11.5-7.21-17.12-.21-.49-.66-.78-1.19-.78-.53,0-.98.3-1.19.79h0Zm76.41,68.78c-5.22,0-9.67-.79-13.34-2.38-3.67-1.59-6.64-3.78-8.91-6.59-2.27-2.8-3.92-6.08-4.94-9.82-1.02-3.75-1.53-7.78-1.53-12.09V3c0-.72.58-1.3,1.3-1.3h5.12c.72,0,1.3.58,1.3,1.3v47.18c0,4.31.51,8.04,1.53,11.18,1.02,3.14,2.44,5.73,4.26,7.78,1.82,2.04,4.01,3.56,6.59,4.54,2.57.98,5.45,1.48,8.63,1.48s6.06-.49,8.63-1.48,4.77-2.5,6.59-4.54c1.82-2.04,3.24-4.64,4.26-7.78,1.02-3.14,1.53-6.87,1.53-11.18V3c0-.72.58-1.3,1.3-1.3h5.12c.72,0,1.3.58,1.3,1.3v48.2c0,4.32-.51,8.35-1.53,12.09-1.02,3.75-2.67,7.02-4.94,9.82-2.27,2.8-5.24,5-8.91,6.59-3.67,1.59-8.12,2.38-13.34,2.38Z"/>
  <path id="path8" class="cls-1" d="m513.25,43.15h5.12c.72,0,1.3.58,1.3,1.3v32.89c0,.56-.34,1.04-.87,1.23-1.59.55-4.11,1.22-7.59,2-4.2.95-9.37,1.42-15.5,1.42-5.15,0-9.92-.91-14.31-2.73-4.39-1.82-8.19-4.45-11.41-7.89-3.22-3.44-5.73-7.72-7.55-12.83-1.82-5.11-2.73-10.96-2.73-17.54s.98-12.43,2.95-17.54c1.97-5.11,4.64-9.39,8-12.83,3.37-3.44,7.29-6.08,11.75-7.89,4.47-1.82,9.23-2.73,14.31-2.73,5.83,0,10.64.62,14.42,1.87,3.14,1.03,5.57,2.03,7.3,2.99.58.32.82,1,.58,1.62l-1.62,4.09c-.14.36-.41.62-.79.75-.37.13-.74.09-1.08-.11-1.95-1.14-4.4-2.1-7.35-2.86-3.63-.95-7.57-1.42-11.81-1.42-3.94,0-7.64.72-11.13,2.16-3.48,1.44-6.51,3.6-9.08,6.47-2.57,2.88-4.6,6.43-6.07,10.67-1.48,4.24-2.21,9.16-2.21,14.76,0,5.22.61,9.94,1.82,14.14,1.21,4.2,3.05,7.8,5.51,10.79,2.46,2.99,5.51,5.28,9.14,6.87,3.63,1.59,7.83,2.38,12.6,2.38,3.86,0,7.1-.21,9.71-.62,1.89-.3,3.34-.59,4.33-.87.57-.16.95-.66.95-1.25v-27.97c0-.72.58-1.3,1.3-1.3h0Zm52.75,38.95c-5.22,0-9.67-.79-13.34-2.38-3.67-1.59-6.64-3.78-8.91-6.59-2.27-2.8-3.92-6.08-4.94-9.82-1.02-3.75-1.53-7.78-1.53-12.09V3c0-.72.58-1.3,1.3-1.3h5.12c.72,0,1.3.58,1.3,1.3v47.18c0,4.31.51,8.04,1.53,11.18,1.02,3.14,2.44,5.73,4.26,7.78,1.82,2.04,4.01,3.56,6.59,4.54,2.57.98,5.45,1.48,8.63,1.48s6.06-.49,8.63-1.48,4.77-2.5,6.59-4.54c1.82-2.04,3.24-4.64,4.26-7.78,1.02-3.14,1.53-6.87,1.53-11.18V3c0-.72.58-1.3,1.3-1.3h5.12c.72,0,1.3.58,1.3,1.3v48.2c0,4.32-.51,8.35-1.53,12.09-1.02,3.75-2.67,7.02-4.94,9.82-2.27,2.8-5.24,5-8.91,6.59-3.67,1.59-8.12,2.38-13.34,2.38h0Zm65.74-6.7c6.13,0,10.9-1.12,14.31-3.35,3.41-2.25,5.11-5.87,5.11-10.88,0-2.88-.55-5.28-1.65-7.23-1.1-1.93-2.55-3.56-4.37-4.88-1.82-1.32-3.9-2.46-6.24-3.41-2.35-.95-4.81-1.93-7.38-2.99-3.26-1.29-6.17-2.59-8.74-3.96-2.57-1.34-4.77-2.88-6.59-4.58-1.82-1.7-3.2-3.65-4.14-5.85-.95-2.2-1.42-4.77-1.42-7.72,0-6.74,2.23-11.85,6.7-15.33,4.47-3.48,10.67-5.22,18.62-5.22,2.12,0,4.2.15,6.24.45,2.04.3,3.96.7,5.73,1.19s3.41,1.04,4.88,1.65c1.03.42,1.93.86,2.72,1.31.57.33.8,1.02.55,1.63l-1.7,4.04c-.15.36-.42.61-.79.73-.37.12-.73.08-1.07-.12-1.93-1.14-4.18-2.09-6.74-2.83-3.14-.91-6.53-1.36-10.16-1.36-2.5,0-4.79.25-6.87.74-2.08.49-3.88,1.29-5.39,2.38-1.51,1.1-2.71,2.48-3.58,4.14-.87,1.67-1.31,3.67-1.31,6.02s.45,4.47,1.36,6.13c.91,1.67,2.18,3.1,3.8,4.31,1.63,1.21,3.54,2.31,5.73,3.29,2.2.98,4.58,2.01,7.15,3.07,3.1,1.29,6.04,2.57,8.8,3.86,2.76,1.29,5.17,2.8,7.21,4.54,2.04,1.74,3.67,3.86,4.88,6.36,1.21,2.5,1.82,5.56,1.82,9.2,0,7.12-2.48,12.45-7.44,16.01-4.96,3.56-11.68,5.34-20.15,5.34-3.03,0-5.79-.19-8.29-.57-2.5-.38-4.73-.85-6.7-1.42-1.97-.57-3.63-1.15-5-1.76-.84-.37-1.56-.72-2.17-1.03-.59-.3-.85-.99-.62-1.61l1.58-4.24c.14-.36.39-.62.75-.76s.72-.12,1.07.06c.52.27,1.11.56,1.78.87,1.29.6,2.8,1.19,4.54,1.76,1.74.57,3.71,1.04,5.9,1.42,2.2.38,4.62.57,7.27.57h0ZM723.49,3v4.1c0,.72-.58,1.3-1.3,1.3h-22.61c-.72,0-1.3.58-1.3,1.3v69.39c0,.72-.58,1.3-1.3,1.3h-5.12c-.72,0-1.3-.58-1.3-1.3V9.7c0-.72-.58-1.3-1.3-1.3h-22.61c-.72,0-1.3-.58-1.3-1.3V3c0-.72.58-1.3,1.3-1.3h55.54c.72,0,1.3.58,1.3,1.3h0Z"/>
  <path id="path10" class="cls-1" d="m304.8,104.94h5.12c.72,0,1.3.58,1.3,1.3v76.09c0,.72-.58,1.3-1.3,1.3h-5.12c-.72,0-1.3-.58-1.3-1.3v-76.09c0-.72.58-1.3,1.3-1.3h0Zm80.08,78.02l-43.31-62.09c-.33-.45-.92-.59-1.44-.4s-.86.67-.86,1.22v60.64c0,.72-.58,1.3-1.3,1.3h-5.01c-.72,0-1.3-.58-1.3-1.3v-76.09c0-.72.58-1.3,1.3-1.3h4.97c.38,0,.75.13.97.44l42.8,59.47c.31.51.89.74,1.46.58.57-.16.95-.66.95-1.25v-57.94c0-.72.58-1.3,1.3-1.3h5.01c.72,0,1.3.58,1.3,1.3v76.09c0,.72-.58,1.3-1.3,1.3h-4.41c-.48,0-.86-.27-1.13-.66h0Zm27.28-.64v-76.09c0-.72.58-1.3,1.3-1.3h42.25c.72,0,1.3.58,1.3,1.3v4.1c0,.72-.58,1.3-1.3,1.3h-34.53c-.72,0-1.3.58-1.3,1.3v25.11c0,.72.58,1.3,1.3,1.3h30.33c.72,0,1.3.58,1.3,1.3v4.1c0,.72-.58,1.3-1.3,1.3h-30.33c-.72,0-1.3.58-1.3,1.3v34.98c0,.72-.58,1.3-1.3,1.3h-5.12c-.72,0-1.3-.58-1.3-1.3Zm129.67-38.1c0,6.74-.98,12.68-2.95,17.83-1.97,5.15-4.64,9.44-8,12.89-3.37,3.44-7.29,6.04-11.75,7.78-4.47,1.74-9.2,2.61-14.19,2.61s-9.73-.87-14.19-2.61c-4.47-1.74-8.38-4.33-11.75-7.78-3.37-3.44-6.04-7.74-8-12.89-1.97-5.15-2.95-11.09-2.95-17.83s.98-12.66,2.95-17.77c1.97-5.11,4.64-9.39,8-12.83,3.37-3.44,7.29-6.04,11.75-7.78,4.47-1.74,9.2-2.61,14.19-2.61s9.73.87,14.19,2.61c4.47,1.74,8.38,4.33,11.75,7.78,3.37,3.44,6.04,7.72,8,12.83,1.97,5.11,2.95,11.03,2.95,17.77Zm-8.18,0c0-5.3-.68-10.05-2.04-14.25-1.36-4.2-3.29-7.78-5.79-10.73-2.5-2.95-5.51-5.2-9.03-6.76-3.52-1.55-7.47-2.33-11.87-2.33s-8.35.78-11.86,2.33c-3.52,1.55-6.53,3.8-9.03,6.76-2.5,2.95-4.43,6.53-5.79,10.73-1.36,4.2-2.04,8.95-2.04,14.25s.68,10.05,2.04,14.25c1.36,4.2,3.29,7.78,5.79,10.73,2.5,2.95,5.51,5.22,9.03,6.81,3.52,1.59,7.47,2.38,11.86,2.38s8.35-.79,11.87-2.38c3.52-1.59,6.53-3.86,9.03-6.81,2.5-2.95,4.43-6.53,5.79-10.73,1.36-4.2,2.04-8.95,2.04-14.25h0Z"/>
  <path id="path12" class="cls-1" d="m609.04,106.24v4.1c0,.72-.58,1.3-1.3,1.3h-22.61c-.72,0-1.3.58-1.3,1.3v69.39c0,.72-.58,1.3-1.3,1.3h-5.12c-.72,0-1.3-.58-1.3-1.3v-69.39c0-.72-.58-1.3-1.3-1.3h-22.61c-.72,0-1.3-.58-1.3-1.3v-4.1c0-.72.58-1.3,1.3-1.3h55.54c.72,0,1.3.58,1.3,1.3h0Zm12.26,76.09v-76.09c0-.72.58-1.3,1.3-1.3h42.82c.72,0,1.3.58,1.3,1.3v4.1c0,.72-.58,1.3-1.3,1.3h-35.1c-.72,0-1.3.58-1.3,1.3v24.77c0,.72.58,1.3,1.3,1.3h31.01c.72,0,1.3.58,1.3,1.3v3.99c0,.72-.58,1.3-1.3,1.3h-31.01c-.72,0-1.3.58-1.3,1.3v28.74c0,.72.58,1.3,1.3,1.3h38.05c.72,0,1.3.58,1.3,1.3v4.1c0,.72-.58,1.3-1.3,1.3h-45.77c-.72,0-1.3-.58-1.3-1.3h0Zm95.72,3c-5.07,0-9.78-.91-14.14-2.73-4.35-1.82-8.14-4.47-11.35-7.95-3.22-3.48-5.75-7.78-7.61-12.89-1.85-5.11-2.78-10.96-2.78-17.54s1-12.43,3.01-17.54c2.01-5.11,4.67-9.41,8-12.89,3.33-3.48,7.19-6.11,11.58-7.89,4.39-1.78,8.97-2.67,13.74-2.67,2.95,0,5.64.19,8.06.57,2.42.38,4.54.85,6.36,1.42,1.82.57,3.37,1.14,4.66,1.7.76.34,1.42.66,1.97.95.57.31.83.99.6,1.6l-1.59,4.26c-.14.36-.39.62-.76.76-.36.14-.73.11-1.07-.07-1.66-.88-3.63-1.76-5.91-2.62-2.91-1.1-6.53-1.65-10.84-1.65-4.92,0-9.22.83-12.89,2.5-3.67,1.66-6.76,4.01-9.25,7.04-2.5,3.03-4.37,6.62-5.62,10.79-1.25,4.16-1.87,8.78-1.87,13.85s.62,9.93,1.87,14.14c1.25,4.2,3.08,7.78,5.51,10.73,2.42,2.95,5.39,5.22,8.91,6.81,3.52,1.59,7.55,2.38,12.09,2.38,5,0,9.18-.47,12.55-1.42,2.61-.73,4.72-1.48,6.36-2.23.35-.16.71-.16,1.06-.01.35.15.6.42.72.79l1.36,4.14c.2.62-.08,1.29-.66,1.57-.47.23-1.05.48-1.73.74-1.29.49-2.91,1-4.88,1.53-1.97.53-4.24.96-6.81,1.31-2.57.34-5.45.51-8.63.51h0Zm88.16-80.39h5.12c.72,0,1.3.58,1.3,1.3v76.09c0,.72-.58,1.3-1.3,1.3h-5.12c-.72,0-1.3-.58-1.3-1.3v-35.21c0-.72-.58-1.3-1.3-1.3h-40.09c-.72,0-1.3.58-1.3,1.3v35.21c0,.72-.58,1.3-1.3,1.3h-5.12c-.72,0-1.3-.58-1.3-1.3v-76.09c0-.72.58-1.3,1.3-1.3h5.12c.72,0,1.3.58,1.3,1.3v31.58c0,.72.58,1.3,1.3,1.3h40.09c.72,0,1.3-.58,1.3-1.3v-31.58c0-.72.58-1.3,1.3-1.3Z"/>
</svg>