<svg xmlns="http://www.w3.org/2000/svg" data-name="Layer 1" width="270.33" height="185.33" viewBox="0 0 235.33 185.33"><path d="M115.87 42.63 100.1 13.75 9.63 178.16h221.41L168.62 64.47h-31.3l42.56 79.73c.93 1.74.27 3.9-1.47 4.83-1.13.6-2.74.43-4.02.43H63.97c-1.98 0-3.58-1.6-3.58-3.58 0-.7.2-1.36.55-1.91L97.08 78.3a3.57 3.57 0 0 1 6.26 0l19.7 35.94c.95 1.73.32 3.9-1.41 4.85s-3.9.32-4.85-1.41l-16.57-30.23-30.19 54.86h100.44l-42.1-79.45c-.18-.28-.33-.59-.43-.92s-.15-.68-.15-1.04c0-1.98 1.6-3.58 3.58-3.58h39.36c1.26 0 2.48.68 3.13 1.86l66.25 120.67c1.48 2.35-.19 5.49-3.03 5.49H3.58c-.58 0-1.17-.15-1.72-.45a3.57 3.57 0 0 1-1.41-4.85L96.04 6.3l.93-1.7c.32-.57.8-1.07 1.43-1.41 1.73-.94 3.9-.3 4.84 1.43l18.02 33h32.53L137.63 8.03c-.94-1.73-.3-3.9 1.43-4.84s3.9-.3 4.84 1.43l19.05 34.88c1.31 2.4-.47 5.27-3.13 5.27h-40.66c-1.41.01-2.57-.91-3.28-2.14Z" style="fill:#fff;fill-rule:evenodd"/></svg>